Coordinates
version=1
nRows=14
nColumns=36
inDegrees=yes

Units are S.I. units (second, meters, Newtons, ...)
If the header above contains a line with 'inDegrees', this indicates whether rotational values are in degrees (yes) or radians (no).

endheader
time	pelvis_tilt	pelvis_list	pelvis_rotation	pelvis_tx	pelvis_ty	pelvis_tz	hip_flexion_r	hip_adduction_r	hip_rotation_r	knee_angle_r	knee_angle_r_beta	ankle_angle_r	subtalar_angle_r	mtp_angle_r	hip_flexion_l	hip_adduction_l	hip_rotation_l	knee_angle_l	knee_angle_l_beta	ankle_angle_l	subtalar_angle_l	mtp_angle_l	lumbar_extension	lumbar_bending	lumbar_rotation	arm_flex_r	arm_add_r	arm_rot_r	elbow_flex_r	pro_sup_r	arm_flex_l	arm_add_l	arm_rot_l	elbow_flex_l	pro_sup_l
      0.35000000	      0.02339953	     -2.80435589	      2.64653407	      0.36717672	      0.96566814	     -0.17565823	     -2.51525924	      9.58575496	      5.09211391	      3.78267796	      0.06602018	      6.90102529	    -10.29237924	     -6.47160318	     29.14786599	     -4.33577417	      0.21653498	     58.07396983	      1.01358198	     -0.54517604	    -13.47897056	     -6.47160318	     -5.13423333	      0.15358642	      5.45799248	      5.34795737	     -4.00583795	     -6.24767417	     32.18253827	    103.43444100	     -2.32350271	     -2.61447553	     -7.09362247	     26.35122156	    103.02580722
      0.36000000	     -0.06346457	     -2.56879952	      2.05361468	      0.37764258	      0.96543522	     -0.17527989	     -3.38871122	      9.29743866	      5.68433282	      3.40016364	      0.05934405	      7.41185918	     -9.93840766	     -6.48283667	     29.56408757	     -4.21223367	     -0.44484784	     55.31885524	      0.96549616	     -0.43551190	    -12.82454407	     -6.48283667	     -5.01986520	     -0.06793361	      6.28050664	      5.47525542	     -4.04040819	     -5.94455324	     32.98510184	    103.56998781	     -3.23970311	     -2.48293703	     -7.58130139	     25.93610103	    102.85895696
      0.37000000	      0.00234594	     -2.44669288	      1.49164454	      0.38809629	      0.96512181	     -0.17498253	     -4.40159232	      9.11336654	      6.12800591	      3.05057550	      0.05324259	      8.17423778	     -9.36243890	     -6.50702349	     29.74710638	     -4.24781754	     -1.13081409	     52.39070733	      0.91439034	     -0.23805153	    -12.02855098	     -6.50702349	     -5.13194244	     -0.14263079	      7.09008195	      5.62233855	     -4.15143166	     -5.59116623	     33.89392526	    103.76638631	     -4.08692396	     -2.26337486	     -8.46036528	     25.57230066	    102.59552050
      0.38000000	     -0.20453380	     -2.37380433	      1.01888863	      0.39860658	      0.96418851	     -0.17484473	     -5.06762733	      8.96788682	      6.43073860	      2.76476826	      0.04825431	      8.59480955	     -9.00044265	     -6.51827055	     30.18603980	     -4.25303636	     -1.66008211	     49.30060992	      0.86045797	     -0.26253919	    -11.34922403	     -6.51827055	     -4.86236985	     -0.14689274	      7.70571666	      5.80466117	     -4.16733893	     -5.34311858	     34.55397971	    103.87566748	     -5.06438882	     -2.14594103	     -8.91400835	     25.15892733	    102.46447177
      0.39000000	     -0.38220635	     -2.38548806	      0.60172931	      0.40919996	      0.96304324	     -0.17485011	     -5.76937835	      8.90767804	      6.71826715	      2.48576674	      0.04338481	      9.08259914	     -8.62332060	     -6.52853323	     30.50668922	     -4.32292934	     -2.11650431	     46.01872497	      0.80317827	     -0.34955062	    -10.61172358	     -6.52853323	     -4.62760983	     -0.05170315	      8.26789276	      5.98452711	     -4.18871537	     -5.08795553	     35.24440087	    103.90399223	     -6.01591290	     -1.99467385	     -9.33136818	     24.71276878	    102.28571064
      0.40000000	     -0.31309839	     -2.37146646	      0.16390365	      0.41983935	      0.96206575	     -0.17485796	     -6.77378058	      8.79558408	      6.96879317	      2.16477943	      0.03778253	      9.89179728	     -8.00915833	     -6.54544536	     30.41004297	     -4.41764686	     -2.71555943	     42.47515051	      0.74133123	     -0.59147036	     -9.68976477	     -6.54544536	     -4.74719831	     -0.00457423	      8.97656709	      6.17508886	     -4.30458042	     -4.74097869	     35.99657084	    103.95928576	     -6.74687740	     -1.82468933	    -10.01498389	     24.27286983	    102.05654731
      0.41000000	     -0.33917777	     -2.44261338	     -0.19056317	      0.43053556	      0.96075315	     -0.17504609	     -7.64673704	      8.76602034	      6.99754115	      1.88945892	      0.03297728	     10.70657492	     -7.18683827	     -6.56814943	     30.35142493	     -4.50985590	     -3.10443118	     38.78787909	      0.67697620	     -0.84985064	     -8.78969979	     -6.56814943	     -4.74562511	      0.15464621	      9.48558321	      6.41358411	     -4.35127309	     -4.44787695	     36.67773474	    104.01664783	     -7.58364901	     -1.62410080	    -10.76664264	     23.89202557	    101.81598622
      0.42000000	     -0.69036137	     -2.60724808	     -0.40792452	      0.44120318	      0.95872826	     -0.17547666	     -8.13702868	      8.85089616	      7.14828611	      1.67752655	      0.02927836	     11.13899396	     -6.78328507	     -6.57797872	     30.64595988	     -4.56737232	     -3.14452332	     35.04755705	      0.61169527	     -1.02550029	     -7.90311309	     -6.57797872	     -4.32934968	      0.43319754	      9.81231373	      6.59679987	     -4.35567536	     -4.26868524	     37.24292713	    104.02717490	     -8.49996823	     -1.48369951	    -11.10528285	     23.51594453	    101.66091130
      0.43000000	     -0.86355860	     -2.72316593	     -0.64500038	      0.45198420	      0.95688624	     -0.17591965	     -8.84976965	      8.86628100	      7.23941570	      1.42907615	      0.02494208	     11.79086105	     -6.32396955	     -6.58946652	     30.57583239	     -4.60267782	     -3.30826460	     31.05624237	      0.54203368	     -1.29752182	     -6.84120773	     -6.58946652	     -4.16339842	      0.65270687	     10.24493585	      6.76445357	     -4.43553557	     -4.03061169	     37.83172255	    104.04509762	     -9.26345523	     -1.37491625	    -11.55128357	     23.10808998	    101.46337141
      0.44000000	     -0.80161253	     -2.83340404	     -0.83376340	      0.46281471	      0.95523503	     -0.17645443	     -9.80509395	      8.86380822	      6.98566228	      1.21238797	      0.02116016	     12.80481408	     -5.31314749	     -6.61346168	     30.14068625	     -4.64772043	     -3.64557908	     26.91177405	      0.46969906	     -1.50327406	     -5.68870441	     -6.61346168	     -4.33096286	      0.83874833	     10.62963372	      6.99254708	     -4.52550152	     -3.70919216	     38.45391422	    104.11424456	     -9.87770844	     -1.17286112	    -12.34997193	     22.75859821	    101.13949565
      0.45000000	     -1.02750191	     -2.99390882	     -0.94500880	      0.47374557	      0.95303933	     -0.17715240	    -10.40281031	      8.91990389	      6.49323608	      1.09003391	      0.01902468	     13.82132272	     -3.77871462	     -6.66050863	     29.98661042	     -4.65960083	     -3.70202821	     22.80117196	      0.39795552	     -1.39158255	     -4.35387693	     -6.66050863	     -4.10115872	      1.08696226	     10.85026444	      7.19584177	     -4.57631294	     -3.35883942	     38.90311110	    104.23269288	    -10.68043638	     -0.96188734	    -13.45797152	     22.68949899	    100.64831140
      0.46000000	     -1.26459617	     -3.18600076	     -1.04029286	      0.48473200	      0.95073450	     -0.17782491	    -10.99460963	      9.02826664	      6.20131696	      0.96622931	      0.01686388	     14.58085740	     -2.89842866	     -6.71360482	     29.78637028	     -4.71790991	     -3.84391340	     18.74339486	      0.32713395	     -1.14756369	     -2.76967689	     -6.71360482	     -3.85992834	      1.36113663	     11.08547887	      7.37502325	     -4.63966148	     -3.00392718	     39.30854076	    104.32453818	    -11.39073048	     -0.81342066	    -14.33289546	     22.51521837	    100.16788395
      0.47000000	     -1.64039539	     -3.38861473	     -1.13731827	      0.49571092	      0.94818193	     -0.17861768	    -11.42080039	      9.14306725	      6.23284421	      0.87363295	      0.01524777	     14.96293107	     -2.71099018	     -6.72607615	     29.71299343	     -4.77058430	     -3.88235196	     14.85468697	      0.25926320	     -0.86944735	     -1.34307398	     -6.72607615	     -3.45656041	      1.68497402	     11.32936190	      7.49276270	     -4.70260515	     -2.80629512	     39.72548312	    104.29618793	    -12.06023990	     -0.72477048	    -14.65785142	     22.10343255	     99.95855296
      0.48000000	     -2.03724112	     -3.71000243	     -1.22148914	      0.50685898	      0.94546424	     -0.17945670	    -11.82242911	      9.38948698	      6.16690870	      0.80529933	      0.01405512	     15.24195003	     -2.50706214	     -6.73302986	     29.79345568	     -4.97039682	     -4.23187766	     11.52226686	      0.20110149	     -0.41842488	     -0.29471095	     -6.73302986	     -2.97528106	      2.16992520	     11.42339684	      7.62189115	     -4.71080783	     -2.66972146	     40.10869455	    104.26028941	    -12.81234116	     -0.61540152	    -14.92763945	     21.67328962	     99.78693400
